PathFileType	4	(X/Y/Z)	OpenSim_Sub02_CSBaseline_Magnet.trc
DataRate	CameraRate	NumFrames	NumMarkers	Units	OrigDataRate	OrigDataStartFrame	OrigNumFrames
100	100	30	8	m	100	3529	7057
Frame#	Time	torso_imu_offset_imu	pelvis_imu_offset_imu	tibia_r_imu_offset_imu	femur_r_imu_offset_imu	tibia_l_imu_offset_imu	femur_l_imu_offset_imu	toes_r_imu_offset_imu	toes_l_imu_offset_imu
				X1	Y1	Z1	X2	Y2	Z2	X3	Y3	Z3	X4	Y4	Z4	X5	Y5	Z5	X6	Y6	Z6	X7	Y7	Z7	X8		Y8	Z8	

3529	35.28000000	-0.92818261	-0.16693900	-0.06331770	-0.65254178	0.16340365	-0.63346778	-0.03690204	-0.66655496	-0.46979367	-0.81962486	-0.22740512	0.02280896	-0.66747044	0.46118491	0.11518410	-0.57470146	0.16250569	0.32200791	-0.49451064	-0.62440602	0.13052145	-0.63552746	-0.15614599	-0.51775525
3530	35.29000000	-0.93278498	-0.16598631	-0.06550243	-0.65372413	0.17027804	-0.62976759	-0.05991938	-0.64809427	-0.47963677	-0.82234100	-0.22115664	0.01829602	-0.66595682	0.47201185	0.10592886	-0.57145322	0.17660824	0.31980394	-0.50939803	-0.60685244	0.11644493	-0.63644637	-0.15688063	-0.51178436
3531	35.30000000	-0.92740150	-0.16177007	-0.06020570	-0.65358281	0.17770531	-0.63401441	-0.08368699	-0.64158171	-0.49335510	-0.82049700	-0.21097123	0.01550027	-0.65518215	0.47801813	0.10607350	-0.56971112	0.17293876	0.31778833	-0.52437451	-0.59369645	0.09763442	-0.64527420	-0.16008205	-0.51036060
3532	35.31000000	-0.92931800	-0.16414721	-0.05870467	-0.65637390	0.18311616	-0.63370385	-0.10870162	-0.63627069	-0.49724102	-0.82502600	-0.19553622	0.00924871	-0.65138678	0.48422522	0.09947370	-0.56610330	0.17608146	0.31857037	-0.54052124	-0.57670414	0.07300489	-0.65091969	-0.15640173	-0.50889045
3533	35.32000000	-0.92810898	-0.16640815	-0.06886118	-0.65187893	0.18589661	-0.63064899	-0.12699493	-0.63456304	-0.49935811	-0.83056432	-0.18662674	0.00738336	-0.65274712	0.49306780	0.09348784	-0.56525180	0.18651236	0.31649498	-0.55119218	-0.56714323	0.04456903	-0.64956311	-0.16051678	-0.49984855
3534	35.33000000	-0.92847890	-0.16131460	-0.06626798	-0.64941062	0.19414328	-0.63320096	-0.14308550	-0.63308149	-0.49094747	-0.83327948	-0.18003092	0.01028963	-0.64672169	0.50055321	0.09104685	-0.57047347	0.18689068	0.31445091	-0.56922213	-0.55447087	0.02052592	-0.65356455	-0.15516609	-0.50308720
3535	35.34000000	-0.92673738	-0.16134878	-0.06145616	-0.64710489	0.19578378	-0.63404036	-0.16811329	-0.63702683	-0.47671527	-0.83697289	-0.16645530	0.00883358	-0.64503864	0.50421077	0.08454829	-0.56351283	0.19321493	0.31790230	-0.57957640	-0.54312871	-0.00181310	-0.65411020	-0.16061964	-0.49832919
3536	35.35000000	-0.93264974	-0.16190997	-0.05897509	-0.64757717	0.20236537	-0.63453582	-0.19078089	-0.64312605	-0.45727485	-0.83640037	-0.16116843	0.01235451	-0.63574203	0.51813722	0.07589148	-0.56049765	0.19559004	0.31593321	-0.59138977	-0.53689863	-0.04069963	-0.65783416	-0.16261633	-0.49275364
3537	35.36000000	-0.93178972	-0.16190896	-0.06095688	-0.64187245	0.20017538	-0.63166519	-0.21538973	-0.64674431	-0.44047427	-0.83799691	-0.15169126	0.00832925	-0.63899187	0.51788687	0.07105650	-0.55997160	0.19898503	0.31783565	-0.59573980	-0.53149146	-0.07489489	-0.65793099	-0.16385729	-0.49013888
3538	35.37000000	-0.93093235	-0.16366340	-0.06217908	-0.64252568	0.20634755	-0.63741448	-0.24680172	-0.64758138	-0.42221228	-0.84237142	-0.14600612	0.00819686	-0.62823607	0.52284601	0.06491761	-0.55234309	0.19946137	0.31448843	-0.59801442	-0.51963160	-0.10686363	-0.65991674	-0.16092407	-0.48629898
3539	35.38000000	-0.93033076	-0.16217395	-0.06484738	-0.63924162	0.21105945	-0.63808562	-0.27088948	-0.64562602	-0.41164239	-0.84351935	-0.14161951	0.01151850	-0.62429447	0.53027535	0.06232402	-0.55346565	0.20496799	0.31447798	-0.59956938	-0.50814812	-0.14540571	-0.65964989	-0.16468665	-0.48231895
3540	35.39000000	-0.93056297	-0.16624586	-0.05954477	-0.63562788	0.21044792	-0.64009866	-0.30240363	-0.63739010	-0.39844011	-0.84440924	-0.13315795	0.00783846	-0.62047916	0.53700964	0.06099838	-0.54974508	0.20720899	0.31851292	-0.59628018	-0.50109275	-0.17641593	-0.65891607	-0.17476783	-0.47855306
3541	35.40000000	-0.92792203	-0.16343852	-0.05872116	-0.63719368	0.21127589	-0.64177653	-0.33063584	-0.62683205	-0.38385670	-0.84585611	-0.13343547	0.00705743	-0.61653001	0.54887692	0.05747291	-0.54664094	0.21010518	0.31712328	-0.59314754	-0.49270620	-0.20886001	-0.65661190	-0.16934816	-0.48220901
3542	35.41000000	-0.93296213	-0.16622152	-0.06266225	-0.63751630	0.21273906	-0.63997756	-0.36163385	-0.62447972	-0.36759603	-0.84290948	-0.12840470	0.00896335	-0.61783136	0.55216292	0.05065188	-0.54742193	0.22085530	0.31505482	-0.59468766	-0.47736729	-0.24409346	-0.65454475	-0.16664854	-0.47612668
3543	35.42000000	-0.93375750	-0.15863065	-0.06431973	-0.63377170	0.21303332	-0.64539404	-0.39274935	-0.60908003	-0.36222976	-0.84311936	-0.12483092	0.00861262	-0.60903539	0.55653931	0.05323038	-0.54286172	0.22309846	0.31613404	-0.59707889	-0.45914267	-0.27724202	-0.65177655	-0.17457448	-0.47313975
3544	35.43000000	-0.93094781	-0.16088265	-0.06185991	-0.63448271	0.21571393	-0.64454222	-0.42506123	-0.59550885	-0.35600562	-0.84625764	-0.12395487	0.01271396	-0.60194211	0.56274577	0.04775565	-0.53957366	0.22752539	0.31757197	-0.59564958	-0.43658408	-0.29303997	-0.65008321	-0.17251648	-0.47323915
3545	35.44000000	-0.92935417	-0.16729657	-0.06462296	-0.63390672	0.21706988	-0.64667948	-0.44933206	-0.57638501	-0.34761359	-0.84338077	-0.12263417	0.01386150	-0.59687776	0.56989729	0.04349776	-0.54368579	0.23477462	0.31324337	-0.58920079	-0.41983080	-0.32558756	-0.64564491	-0.17926997	-0.47435628
3546	35.45000000	-0.92964953	-0.16430327	-0.06004064	-0.63136052	0.21755171	-0.63986832	-0.47728178	-0.55561082	-0.34517098	-0.84166171	-0.12375771	0.00813579	-0.59280698	0.57250594	0.04396704	-0.54007305	0.23713004	0.30745254	-0.58826497	-0.40107590	-0.35108715	-0.64203874	-0.17480864	-0.47902676
3547	35.46000000	-0.93008508	-0.16507324	-0.06152727	-0.63067553	0.21910181	-0.64206531	-0.50977993	-0.52747458	-0.34203701	-0.84251498	-0.13014547	0.01244119	-0.59380236	0.57489309	0.04120344	-0.53538069	0.24517762	0.31043317	-0.58893276	-0.37649343	-0.37569446	-0.64584370	-0.17794549	-0.47931709
3548	35.47000000	-0.92744179	-0.16898744	-0.06323853	-0.63204246	0.21933516	-0.64311569	-0.53876749	-0.50110386	-0.34283883	-0.84372701	-0.13239460	0.01223338	-0.58541229	0.57946384	0.04035968	-0.52893964	0.25320658	0.31488571	-0.58317348	-0.35674915	-0.40808483	-0.64288278	-0.17607253	-0.47824179
3549	35.48000000	-0.92306188	-0.17303875	-0.06211741	-0.62974892	0.21735015	-0.64470263	-0.56327800	-0.47682701	-0.32554427	-0.84056292	-0.14189995	0.00969742	-0.57741967	0.59249108	0.03234181	-0.52688558	0.25566447	0.31270112	-0.58255815	-0.33486123	-0.43383087	-0.63993256	-0.17676951	-0.47975685
3550	35.49000000	-0.92909979	-0.17120735	-0.06019067	-0.63478137	0.21174313	-0.64711222	-0.58905860	-0.45433109	-0.31046471	-0.83951902	-0.14780837	0.01601729	-0.57608674	0.59510442	0.03543689	-0.52921264	0.26132323	0.30650937	-0.57560861	-0.31029681	-0.46134249	-0.63652821	-0.18178631	-0.47720837
3551	35.50000000	-0.93180764	-0.16954767	-0.06122140	-0.63613078	0.20948611	-0.64168931	-0.61833653	-0.43492932	-0.30224164	-0.83760997	-0.15914024	0.01892767	-0.57101190	0.60310217	0.02872148	-0.52445106	0.27317704	0.29642633	-0.56546288	-0.28810971	-0.48388873	-0.64062695	-0.17901922	-0.47898650
3552	35.51000000	-0.93200153	-0.16890060	-0.06341701	-0.63066656	0.20635233	-0.64101187	-0.63512420	-0.41367518	-0.28129464	-0.83553922	-0.16650423	0.01613580	-0.55999712	0.60514112	0.01967246	-0.51274943	0.27690026	0.29824843	-0.56151085	-0.26932971	-0.50911203	-0.64294689	-0.17954872	-0.48341908
3553	35.52000000	-0.92940176	-0.17573793	-0.06588345	-0.63587951	0.20515763	-0.64355866	-0.64542811	-0.38728883	-0.27170677	-0.83336851	-0.17783563	0.01964839	-0.56427161	0.61384907	0.02044118	-0.51175207	0.28423772	0.29450369	-0.55341155	-0.25518678	-0.52542912	-0.64135239	-0.17944388	-0.48492684
3554	35.53000000	-0.93036009	-0.17292590	-0.06569359	-0.63169629	0.20217067	-0.64558949	-0.66523919	-0.37207194	-0.26352920	-0.82638467	-0.18917046	0.02939212	-0.55589939	0.62420849	0.01530346	-0.51531548	0.29409869	0.29651457	-0.54808693	-0.23690865	-0.53933532	-0.64372644	-0.17933374	-0.48377467
3555	35.54000000	-0.93655667	-0.17320902	-0.06421675	-0.63450733	0.20512245	-0.64384053	-0.68082015	-0.35683354	-0.25117649	-0.83110096	-0.20509047	0.03144343	-0.55028121	0.62962438	0.00983010	-0.51144925	0.29807748	0.29318456	-0.54243874	-0.21804198	-0.54698592	-0.64285393	-0.17987917	-0.48309894
3556	35.55000000	-0.92969417	-0.16951707	-0.06930685	-0.63371223	0.20249020	-0.64078532	-0.68801635	-0.33407825	-0.25632034	-0.82233318	-0.21171144	0.03091417	-0.54148019	0.63493293	0.01020375	-0.51246715	0.29753100	0.28723652	-0.53516361	-0.20731664	-0.56253990	-0.64485565	-0.17762964	-0.48364537
3557	35.56000000	-0.93343675	-0.16766281	-0.06834961	-0.63438477	0.19756037	-0.64243259	-0.69841165	-0.31978695	-0.24810513	-0.81752538	-0.22345756	0.03182498	-0.52897317	0.63995742	0.00509446	-0.50293294	0.31085155	0.28374084	-0.52557024	-0.19994616	-0.57354906	-0.64786046	-0.17231372	-0.48004162
3558	35.57000000	-0.92877955	-0.17199099	-0.07581149	-0.63621522	0.19737436	-0.63956766	-0.70066814	-0.30670193	-0.23790956	-0.81526561	-0.22895705	0.02942629	-0.52446421	0.63951899	0.00133551	-0.50430854	0.31253018	0.28224450	-0.51998582	-0.19259887	-0.58151072	-0.64665579	-0.17242885	-0.48375344
